<svg xmlns="http://www.w3.org/2000/svg" viewBox="0 0 1200 630" role="img" aria-label="auひかりのマンション対応を確認する方法" font-family="'Noto Sans JP','Hiragino Sans','Yu Gothic',Meiryo,sans-serif">
  <defs>
    <linearGradient id="bg" x1="0" y1="0" x2="1" y2="1">
      <stop offset="0" stop-color="#0b2c5f"/>
      <stop offset=".55" stop-color="#114699"/>
      <stop offset="1" stop-color="#1558d6"/>
    </linearGradient>
  </defs>
  <rect width="1200" height="630" fill="url(#bg)"/>
  <circle cx="1150" cy="30" r="180" fill="#ffffff" opacity=".05"/>
  <circle cx="1080" cy="600" r="140" fill="#ffffff" opacity=".05"/>

  <!-- 右下:マンションと確認チェックのイラスト -->
  <g transform="translate(895, 330) scale(0.9)">
    <rect x="30" y="40" width="170" height="220" rx="12" fill="#ffffff"/>
    <rect x="52" y="70" width="34" height="30" rx="5" fill="#9fc1f5"/>
    <rect x="102" y="70" width="34" height="30" rx="5" fill="#9fc1f5"/>
    <rect x="152" y="70" width="30" height="30" rx="5" fill="#9fc1f5"/>
    <rect x="52" y="118" width="34" height="30" rx="5" fill="#9fc1f5"/>
    <rect x="102" y="118" width="34" height="30" rx="5" fill="#ffd76a"/>
    <rect x="152" y="118" width="30" height="30" rx="5" fill="#9fc1f5"/>
    <rect x="52" y="166" width="34" height="30" rx="5" fill="#9fc1f5"/>
    <rect x="102" y="166" width="34" height="30" rx="5" fill="#9fc1f5"/>
    <rect x="152" y="166" width="30" height="30" rx="5" fill="#9fc1f5"/>
    <rect x="92" y="214" width="46" height="46" rx="6" fill="#114699"/>
    <circle cx="228" cy="216" r="46" fill="#ffd76a"/>
    <path d="M206 216 L222 234 L252 200" fill="none" stroke="#0b2c5f" stroke-width="13" stroke-linecap="round" stroke-linejoin="round"/>
  </g>

  <rect x="70" y="80" width="316" height="56" rx="28" fill="#ffd76a"/>
  <text x="228" y="119" text-anchor="middle" font-size="29" font-weight="800" fill="#0b2c5f">確認は3ステップだけ</text>

  <text x="70" y="248" font-size="76" font-weight="800" fill="#ffffff">auひかりの</text>
  <text x="70" y="356" font-size="76" font-weight="800" fill="#ffd76a">マンション対応</text>
  <text x="70" y="432" font-size="31" font-weight="600" fill="#cfe0ff">タイプ別の料金・速度と非対応時の代替策</text>

  <g transform="translate(70,530)">
    <circle cx="24" cy="24" r="24" fill="#ffffff"/>
    <polygon points="24,8 29,24 24,40 19,24" fill="#1558d6"/>
    <circle cx="24" cy="24" r="3.5" fill="#0b2c5f"/>
    <text x="62" y="34" font-size="30" font-weight="800" fill="#ffffff">回線コンパス</text>
  </g>
</svg>
