<svg xmlns="http://www.w3.org/2000/svg" viewBox="0 0 1200 630" role="img" aria-label="一人暮らしのWiFiの選び方" font-family="'Noto Sans JP','Hiragino Sans','Yu Gothic',Meiryo,sans-serif">
  <defs>
    <linearGradient id="bg" x1="0" y1="0" x2="1" y2="1">
      <stop offset="0" stop-color="#0b2c5f"/>
      <stop offset=".55" stop-color="#114699"/>
      <stop offset="1" stop-color="#1558d6"/>
    </linearGradient>
  </defs>
  <rect width="1200" height="630" fill="url(#bg)"/>
  <circle cx="1150" cy="30" r="180" fill="#ffffff" opacity=".05"/>
  <circle cx="1080" cy="600" r="140" fill="#ffffff" opacity=".05"/>

  <!-- 右下:部屋のイラスト -->
  <g transform="translate(850, 380) scale(0.85)">
    <rect x="0" y="40" width="300" height="230" rx="14" fill="#ffffff"/>
    <rect x="30" y="70" width="90" height="80" rx="8" fill="#9fc1f5"/>
    <rect x="150" y="170" width="120" height="52" rx="12" fill="#1558d6"/>
    <rect x="150" y="140" width="120" height="36" rx="12" fill="#4b8bf5"/>
    <rect x="34" y="196" width="86" height="12" rx="6" fill="#c9d6e8"/>
    <rect x="52" y="160" width="50" height="36" rx="6" fill="#0b2c5f"/>
    <g fill="none" stroke="#ffd76a" stroke-width="10" stroke-linecap="round">
      <path d="M64 138 a26 26 0 0 1 26 0"/>
      <path d="M56 118 a44 44 0 0 1 42 0"/>
    </g>
  </g>

  <rect x="70" y="80" width="292" height="56" rx="28" fill="#ffd76a"/>
  <text x="216" y="119" text-anchor="middle" font-size="29" font-weight="800" fill="#0b2c5f">3タイプ徹底比較</text>

  <text x="70" y="248" font-size="80" font-weight="800" fill="#ffffff">一人暮らしの</text>
  <text x="70" y="360" font-size="80" font-weight="800" fill="#ffffff">WiFiの<tspan fill="#ffd76a">正解</tspan></text>
  <text x="70" y="436" font-size="31" font-weight="600" fill="#cfe0ff">光・ホームルーター・ポケット型、迷いに終止符</text>

  <g transform="translate(70,530)">
    <circle cx="24" cy="24" r="24" fill="#ffffff"/>
    <polygon points="24,8 29,24 24,40 19,24" fill="#1558d6"/>
    <circle cx="24" cy="24" r="3.5" fill="#0b2c5f"/>
    <text x="62" y="34" font-size="30" font-weight="800" fill="#ffffff">回線コンパス</text>
  </g>
</svg>
